<?xml version="1.0" encoding="UTF-8" standalone="no"?>
<svg viewBox="0 0 943.10004 619.35388" xmlns="http://www.w3.org/2000/svg" xmlns:xlink="http://www.w3.org/1999/xlink">
<defs>
<filter id="filter4329">
<feGaussianBlur stdDeviation="2.29202"/>
</filter>
<filter id="filter4476">
<feGaussianBlur stdDeviation="2.02419"/>
</filter>
<filter id="filter4520">
<feGaussianBlur stdDeviation="1.00413"/>
</filter>
<filter id="filter4526">
<feGaussianBlur stdDeviation=".60863"/>
</filter>
<filter id="filter4530">
<feGaussianBlur stdDeviation=".44758"/>
</filter>
<filter id="filter4601">
<feGaussianBlur stdDeviation="1.14991"/>
</filter>
<filter id="filter4611">
<feGaussianBlur stdDeviation="1.28974"/>
</filter>
<filter id="filter4617">
<feGaussianBlur stdDeviation="2.03226"/>
</filter>
<linearGradient id="linearGradient4263">
<stop offset="0" stop-color="#8e959d"/>
<stop offset="1" stop-color="#8e959d" stop-opacity="0"/>
</linearGradient>
<linearGradient id="linearGradient4175">
<stop offset="0" stop-color="#d3d3d3"/>
<stop offset=".28374" stop-color="#f0f1f3"/>
<stop offset=".59552" stop-color="#f8f8f9"/>
<stop offset="1" stop-color="#c1c4cd"/>
</linearGradient>
<linearGradient gradientUnits="userSpaceOnUse" id="linearGradient4243" x1="453.45108" x2="498.88708">
<stop offset="0" stop-color="#63747c"/>
<stop offset="1" stop-color="#63747c" stop-opacity="0"/>
</linearGradient>
<linearGradient gradientUnits="userSpaceOnUse" id="linearGradient4245" x1="453.45108" x2="498.88708">
<stop offset="0" stop-color="#1a1a1a"/>
<stop offset="1" stop-color="#1a1a1a" stop-opacity="0"/>
</linearGradient>
<linearGradient gradientUnits="userSpaceOnUse" id="linearGradient4367" x1="167.5103" x2="214.55547">
<stop offset="0" stop-color="#323639"/>
<stop offset="1" stop-color="#323639" stop-opacity="0"/>
</linearGradient>
<linearGradient gradientUnits="userSpaceOnUse" id="linearGradient4181" x1="185.4594" x2="182.26656" xlink:href="#linearGradient4175" y1="1351.07774" y2="1243.70661"/>
<linearGradient gradientUnits="userSpaceOnUse" id="linearGradient4233" x1="42.51866" x2="24.16383" xlink:href="#linearGradient4175" y1="1417.1934" y2="1375.25785"/>
<linearGradient gradientUnits="userSpaceOnUse" id="linearGradient4241" x1="302.19608" x2="206.42189" xlink:href="#linearGradient4175" y1="1130.90299" y2="1077.67719"/>
<linearGradient gradientUnits="userSpaceOnUse" id="linearGradient4269" x1="88.17997" x2="68.57214" xlink:href="#linearGradient4263" y1="1392.9998" y2="1321.2395"/>
<linearGradient gradientUnits="userSpaceOnUse" id="linearGradient4277" x1="293.01865" x2="257.53479" xlink:href="#linearGradient4263" y1="1146.2256" y2="1134.1288"/>
<linearGradient gradientUnits="userSpaceOnUse" id="linearGradient4285" x1="-366.35229" x2="-116.15875" xlink:href="#linearGradient4175"/>
<linearGradient gradientUnits="userSpaceOnUse" id="linearGradient4293" x1="-394.57812" x2="-193.57811" xlink:href="#linearGradient4175"/>
<linearGradient gradientUnits="userSpaceOnUse" id="linearGradient4301" x1="-203.44908" x2="-150.83617" xlink:href="#linearGradient4175"/>
<linearGradient gradientUnits="userSpaceOnUse" id="linearGradient4339" x1="-184.9007" x2="-158.9007" xlink:href="#linearGradient4263"/>
<linearGradient gradientUnits="userSpaceOnUse" id="linearGradient4349" x1="-356.97488" x2="-224.10722" xlink:href="#linearGradient4263"/>
<linearGradient gradientUnits="userSpaceOnUse" id="linearGradient4375" x1="77.92437" x2="196.19798" xlink:href="#linearGradient4175"/>
<linearGradient gradientUnits="userSpaceOnUse" id="linearGradient4405" x1="74.09164" x2="133.39737" xlink:href="#linearGradient4175"/>
<linearGradient gradientUnits="userSpaceOnUse" id="linearGradient4442" x1="398.40341" x2="516.67702" xlink:href="#linearGradient4175"/>
<linearGradient gradientUnits="userSpaceOnUse" id="linearGradient4446" x1="394.57068" x2="453.87641" xlink:href="#linearGradient4175"/>
<linearGradient gradientUnits="userSpaceOnUse" id="linearGradient4542" x1="291.44449" x2="311.12512" xlink:href="#linearGradient4175" y1="947.4353" y2="987.35461"/>
<linearGradient gradientUnits="userSpaceOnUse" id="linearGradient4552" x1="-414.44275" x2="-355.13644" xlink:href="#linearGradient4175" y1="1548.4152" y2="1556.1135"/>
</defs>
<g transform="translate(417.12295,-940.21591)">
<path d="m-245.30392,1298.2417-146.77419,74.1936 15.32258.8064 54.03226-19.3548 50-19.3549 58.87097-25.8064c0,0 6.43069-2.2514 2.41935-8.0645s-33.87097-2.4194-33.87097-2.4194z" filter="url(#filter4611)"/>
<path d="m298.66383,986.95139-10.48387-45.16129 41.93548,47.58064-31.45161-2.41935z" filter="url(#filter4530)" stroke="#000"/>
<path d="m-161.01359,1256.3062c0,0 4.72263-19.3464 6.45161-28.2258s4.04973-18.3268 4.03226-25 1.94205-10.6691-2.41936-14.5161-20.16129-.8065-20.16129-.8065l-29.03226,54.0323 41.12904,14.5161z" filter="url(#filter4526)"/>
<path d="m357.99362,1184.0084c-4.47282-.022-9.14575.3544-15.96875,1.2188-1.53609,0-3.04723.2216-4.5.6562-5.27114.8802-11.69498,2.3017-17.78125,3.875l-34.09375-.5312-2.5625,4.875 6.84375,11.375 2.625-1.6876c-1.38559,2.0688-2.44133,4.3533-3.34375,6.9376-.47829,1.3696-.84034,2.7799-1.125,4.1874l-10.34375,3.9376 9.53125,6.375c.0339,1.5051.10997,3.001.21875,4.4374 .96109,7.9612 2.46658,12.5109 10.5,18.5313s25.03597,7.5247 37.90625,8.875 29.14598.9075 38.71875-.8125 11.56656-.5672 18.53125-6.4375 12.01546-19.2966 11.53125-30.9375-5.75444-23.0791-13.9375-28.75-15.94961-4.8079-24.21875-5.625c-3.10093-.3064-5.77922-.4863-8.53125-.5z" filter="url(#filter4520)"/>
<g transform="translate(-115.18997,67.28919)">
<path d="m403.43571,1146.1477-14.22753,5.4257 16.37609,10.9444-2.14856-16.3701z"/>
<path d="m398.98158,1162.3689c.96109,7.9612 2.45045,12.528 10.48387,18.5484s25.03294,7.5207 37.90322,8.871 29.13691.9135 38.70968-.8065 11.5837-.5813 18.54839-6.4516 12.00234-19.2894 11.51813-30.9303-5.75443-23.0762-13.93749-28.7471-15.92441-4.8281-24.19355-5.6452-13.62026-.6518-25,.8065-32.84312,6.7171-39.89069,10.5328-10.19162,8.4606-12.43985,14.8988c-2.16647,6.2041-2.15492,12.9383-1.70171,18.9232z" fill="url(#linearGradient4442)"/>
<path d="m211.27666,611.52686c0,18.09015-9.06345,32.75512-20.24378,32.75512s-20.24378-14.66497-20.24378-32.75512 9.06345-32.75513 20.24378-32.75513 20.24378,14.66497 20.24378,32.75513z" fill="none" stroke="#6e7a8a" stroke-width="6.5576" transform="matrix(1.04314,0,0,.93426,294.27422,581.76168)"/>
<path d="m150.11763,641.49895c-12.83376,1e-005-23.23758-14.87171-23.23758-33.21691s10.40382-33.21691 23.23758-33.21691" fill="none" stroke="#e6e6e6" stroke-linecap="round" stroke-linejoin="round" stroke-width="1.65444" transform="matrix(.99978,0,0,1.06852,303.40416,503.47831)"/>
<path d="m211.27666,611.52686c0,18.09015-9.06345,32.75512-20.24378,32.75512s-20.24378-14.66497-20.24378-32.75512 9.06345-32.75513 20.24378-32.75513 20.24378,14.66497 20.24378,32.75513z" fill="#323639" stroke="#323639" stroke-width="6.5576" transform="matrix(.45764,0,0,.68168,397.14276,736.49087)"/>
<path d="m150.11763,641.49895c-12.83376,1e-005-23.23758-14.87171-23.23758-33.21691s10.40382-33.21691 23.23758-33.21691" fill="none" stroke="#e6e6e6" stroke-linecap="round" stroke-linejoin="round" stroke-width="1.65444" transform="matrix(.99978,0,0,1.06852,325.35869,503.47831)"/>
<path d="m211.27666,611.52686c0,18.09015-9.06345,32.75512-20.24378,32.75512s-20.24378-14.66497-20.24378-32.75512 9.06345-32.75513 20.24378-32.75513 20.24378,14.66497 20.24378,32.75513z" fill="url(#linearGradient4367)" transform="matrix(-.90331,0,0,.87718,665.755,616.48907)"/>
<path d="m474.44584,1146.453 9.69421,5.7025-10.26446,5.1322 .57025-10.8347z" fill="#999"/>
<path d="m397.13679,1121.955 56.73962.8554-21.95453,3.1364-17.67767,3.9917-12.83056,8.2686-6.84297-11.4049 2.56611-4.8472z" fill="url(#linearGradient4446)" stroke="#ccc"/>
</g>
<path d="m181.72834,1243.403c0,0 16.8756-21.8189 28.22581-41.9355s25.26837-53.086 37.09677-79.8387 25.62071-58.0912 33.87097-80.6451 16.93548-54.03231 16.93548-54.03231l16.93549-.80645 14.51613,2.41935c0,0-4.83399,45.02721-7.25807,66.12901s-4.53827,41.6657-7.25806,60.4839-5.62143,35.8858-8.87097,52.4194-7.63226,34.5492-10.48387,46.7741-6.45161,26.613-6.45161,26.613l-107.25807,2.4193z" filter="url(#filter4476)"/>
<path d="m-131.17488,1261.9514 314.51613-16.9355 108.87096-6.4516 97.58065-3.2258c0,0 24.90649-.1648 37.09677,2.0161 15.23322,2.7254 30.0039,7.9193 44.35484,13.7097 7.7483,3.1264 15.19458,7.0249 22.37904,11.2903 5.89882,3.5022 12.16199,6.7666 16.93548,11.6936 4.22862,4.3645 9.38213,9.5855 9.87904,15.3225s-3.93166,10.1972-8.66936,15.7259-13.25269,10.5688-20.76614,14.7177-23.79032,9.879-23.79032,9.879-22.15834,6.6346-31.45161,8.871-11.84123,3.1114-24.19355,4.8387-30.90673,3.1441-50,4.0323c-25.26013,1.3327-12.88004-.5704-75.80645,1.6129s-290.722,13.5888-301.6129,12.9032-25.31618-1.5366-40.92742-4.0323-72.72981-17.0643-94.75807-22.7822-20.32391-5.3574-38.50806-10.8871-63.17701-22.3717-68.34677-24.5968-11.14962-4.711-11.29032-10.0806 4.97654-6.6183 12.90322-9.4758 125.60484-18.1452 125.60484-18.1452z" fill="#1a1a1a" filter="url(#filter4329)"/>
<path d="m-131.17488,1261.9514 314.51613-16.9355 108.87096-6.4516 97.58065-3.2258c0,0 24.90649-.1648 37.09677,2.0161 15.23322,2.7254 30.0039,7.9193 44.35484,13.7097 7.7483,3.1264 15.19458,7.0249 22.37904,11.2903 5.89882,3.5022 12.16199,6.7666 16.93548,11.6936 4.22862,4.3645 9.38213,9.5855 9.87904,15.3225s-3.93166,10.1972-8.66936,15.7259-13.25269,10.5688-20.76614,14.7177-23.79032,9.879-23.79032,9.879-22.15834,6.6346-31.45161,8.871-11.84123,3.1114-24.19355,4.8387-30.90673,3.1441-50,4.0323c-25.26013,1.3327-12.88004-.5704-75.80645,1.6129s-290.722,13.5888-301.6129,12.9032-25.31618-1.5366-40.92742-4.0323-72.72981-17.0643-94.75807-22.7822-20.32391-5.3574-38.50806-10.8871-63.17701-22.3717-68.34677-24.5968-11.14962-4.711-11.29032-10.0806 4.97654-6.6183 12.90322-9.4758 125.60484-18.1452 125.60484-18.1452z" fill="url(#linearGradient4181)"/>
<path d="m181.72834,1243.403c0,0 16.8756-21.8189 28.22581-41.9355s25.26837-53.086 37.09677-79.8387 25.62071-58.0912 33.87097-80.6451 16.93548-54.03231 16.93548-54.03231l-8.46774-43.54839 39.91936,45.16129c0,0-4.83399,45.02721-7.25807,66.12901s-4.53827,41.6657-7.25806,60.4839-5.62143,35.8858-8.87097,52.4194-7.63226,34.5492-10.48387,46.7741-6.45161,26.613-6.45161,26.613l-107.25807,2.4193z" fill="url(#linearGradient4241)"/>
<path d="m205.11544,1241.7901c25.18747-34.3653 42.42037-71.3434 58.87097-110.4839 13.39564-34.9745 30.58248-86.752 38.70967-131.45158l16.93549-7.25807c-6.65066,54.26395-9.98702,99.71875-21.24448,146.46395-11.38731,47.2843-22.95388,74.5414-31.17488,104.3425l-62.09677-1.6129z" fill="url(#linearGradient4277)"/>
<path d="m-247.30392,1298.2417-146.77419,74.1936 15.32258.8064 54.03226-19.3548 50-19.3549 58.87097-25.8064c0,0 6.43069-2.2514 2.41935-8.0645s-33.87097-2.4194-33.87097-2.4194z" fill="url(#linearGradient4293)"/>
<path d="m-161.82004,1256.3062c0,0 4.72263-19.3464 6.45161-28.2258s4.04973-18.3268 4.03226-25 1.94205-10.6691-2.41936-14.5161-20.16129-.8065-20.16129-.8065l-29.03226,54.0323 41.12904,14.5161z" fill="url(#linearGradient4301)"/>
<path d="m-138.43295,1264.774-16.12903-10.8871-181.45161-130.6452-29.03226,3.2258 120.96774,152.0162 105.64516-13.7097z" filter="url(#filter4617)"/>
<path d="m-159.40069,1199.8546h-7.25806l-17.74194,42.742 10.48387,2.4193 14.51613-45.1613z" fill="url(#linearGradient4339)"/>
<path d="m-116.65875,1266.7901-38.70968-12.9032-181.45161-130.6452-29.03226,3.2258 120.16129,154.0323 129.03226-13.7097z" fill="url(#linearGradient4285)"/>
<g fill="url(#linearGradient4243)" stroke="url(#linearGradient4245)" transform="translate(-4.56198,825.71824)">
<path d="m498.3871,437.44283-9.2742-5.24194-3.2258,6.85484-14.91936,7.66129-13.70968,4.83871c0,0-4.6477,7.80098-2.92338,10.28225s4.97692,1.51216 9.375,1.00807 14.51613-6.45161 14.51613-6.45161l16.93548-8.46774 3.22581-10.48387z" fill="url(#linearGradient4243)" stroke="url(#linearGradient4245)"/>
<path d="m469.25403,447.22105 9.2742,9.375" fill="url(#linearGradient4243)" stroke="url(#linearGradient4245)"/>
<path d="m485.58468,439.45896 9.97984,8.16532" fill="url(#linearGradient4243)" stroke="url(#linearGradient4245)"/>
</g>
<path d="m-237.79317,1299.2793 13.68594,2.281-132.86765,58.1652 119.18171-60.4462z" fill="url(#linearGradient4349)"/>
<path d="m151.7994,1397.3376c-4.47194-.022-9.14795.3548-15.96875,1.2188-1.53609,0-3.04723.2217-4.5.6562-5.27274.8802-11.69163,2.3009-17.78125,3.875l-34.09376-.5312-.25.5-.03125-.094-36.78125,17.9688 27.9375,4.5625 6.84375-3.6875 6.4375-3.1875 .125.1875 2.625-1.6875c-1.38559,2.0687-2.44133,4.3533-3.34375,6.9375-.47829,1.3697-.84034,2.7799-1.125,4.1875l-10.34375,3.9375 9.53125,6.375c.03388,1.5051.10997,3.001.21875,4.4375 .96109,7.9612 2.46658,12.5109 10.5,18.5313s25.03598,7.5246 37.90626,8.875 29.11473.9075 38.6875-.8126 11.59781-.5671 18.5625-6.4374 12.01546-19.2966 11.53125-30.9376-5.75444-23.079-13.9375-28.75-15.94961-4.8079-24.21875-5.625c-3.10093-.3064-5.77922-.4862-8.53125-.5z" filter="url(#filter4601)"/>
<path d="m-359.40069,1553.8869-57.72226-5.8278 73.85129,11.4729 135.48387-41.9354 116.12904-44.3549 92.74194-36.2903 75.80645-34.6774 47.58065-17.742 45.96774-16.9354 50-14.5162 23.3871-5.6451c0,0-13.80738-9.3045-26.61291-12.9033s-29.31776-5.8832-50-4.8387-58.10395,7.9776-72.58064,14.5162-16.93548,12.9032-16.93548,12.9032l-171.77419,85.4839-64.51613,31.4516-59.67742,25.8064-75.80645,29.8387-65.32258,24.1936z" fill="url(#linearGradient4233)"/>
<path d="m82.95667,1425.5689-14.22753,5.4257 16.37609,10.9444-2.14856-16.3701z"/>
<path d="m78.50254,1441.7901c.9611,7.9612 2.45045,12.528 10.48387,18.5484s25.03294,7.5207 37.90322,8.871 29.13691.9135 38.70968-.8065 11.5837-.5813 18.54839-6.4516 12.00234-19.2894 11.51813-30.9303-5.75443-23.0762-13.93749-28.7471-15.92441-4.8281-24.19355-5.6452-13.62026-.6518-25,.8065-32.84312,6.7171-39.89069,10.5328-10.19161,8.4606-12.43985,14.8988c-2.16647,6.2041-2.15491,12.9383-1.70171,18.9232z" fill="url(#linearGradient4375)"/>
<path d="m211.27666,611.52686c0,18.09015-9.06345,32.75512-20.24378,32.75512s-20.24378-14.66497-20.24378-32.75512 9.06345-32.75513 20.24378-32.75513 20.24378,14.66497 20.24378,32.75513z" fill="none" stroke="#6e7a8a" stroke-width="6.5576" transform="matrix(1.04314,0,0,.93426,-26.20482,861.18291)"/>
<path d="m150.11763,641.49895c-12.83376,1e-005-23.23758-14.87171-23.23758-33.21691s10.40382-33.21691 23.23758-33.21691" fill="none" stroke="#e6e6e6" stroke-linecap="round" stroke-linejoin="round" stroke-width="1.65444" transform="matrix(.99978,0,0,1.06852,-17.07488,782.89954)"/>
<path d="m211.27666,611.52686c0,18.09015-9.06345,32.75512-20.24378,32.75512s-20.24378-14.66497-20.24378-32.75512 9.06345-32.75513 20.24378-32.75513 20.24378,14.66497 20.24378,32.75513z" fill="#323639" stroke="#323639" stroke-width="6.5576" transform="matrix(.45764,0,0,.68168,76.66371,1015.9121)"/>
<path d="m150.11763,641.49895c-12.83376,1e-005-23.23758-14.87171-23.23758-33.21691s10.40382-33.21691 23.23758-33.21691" fill="none" stroke="#e6e6e6" stroke-linecap="round" stroke-linejoin="round" stroke-width="1.65444" transform="matrix(.99978,0,0,1.06852,4.87964,782.89954)"/>
<path d="m211.27666,611.52686c0,18.09015-9.06345,32.75512-20.24378,32.75512s-20.24378-14.66497-20.24378-32.75512 9.06345-32.75513 20.24378-32.75513 20.24378,14.66497 20.24378,32.75513z" fill="url(#linearGradient4367)" transform="matrix(-.90331,0,0,.87718,345.27596,895.9103)"/>
<path d="m153.9668,1425.8742 9.69421,5.7025-10.26446,5.1322 .57025-10.8347z" fill="#999"/>
<path d="m39.58573,1419.7423 36.78096-17.9628 4.8471,15.468-6.84297,3.3502-6.84297,3.7066-27.94212-4.562z" fill="#5e6168"/>
<path d="m76.65775,1401.3762 56.73962.8554-21.95453,3.1364-17.67767,3.9917-12.83057,8.2686-6.84297-11.4049 2.56611-4.8472z" fill="url(#linearGradient4405)" stroke="#ccc"/>
<path d="m98.66383,1348.2417 40.32258-8.0645 49.19355-5.6452-29.03226,17.742c0,0-169.17695,80.2024-256.04839,114.9194-80.05371,31.9923-146.628,53.1044-243.95161,85.887l-4.03226-2.4193c82.86811-29.9446 180.24408-68.429 244.35484-97.1774 68.13807-31.0059 136.09377-64.8212 199.19355-105.242z" fill="url(#linearGradient4269)"/>
<path d="m298.66383,986.95139-10.48387-45.16129 41.93548,47.58064-31.45161-2.41935z" fill="url(#linearGradient4542)" filter="url(#filter4530)"/>
<path d="m-359.4254,1553.9247 15.97781,5.6451-72.98387-11.4414 57.00606,5.7963z" fill="url(#linearGradient4552)"/>
<g fill="#535d6c">
<path d="m-33.31913,487.24408h.69021a2,2 0 0,1 2,2v3.9877a2,2 0 0,1 -2,2h-.69021a2,2 0 0,1 -2-2v-3.9877a2,2 0 0,1 2-2" fill="#535d6c" transform="matrix(.9832,-.18253,.18253,.9832,0,831.15626)"/>
<path d="m101.35084,507.24124h.69021a2,2 0 0,1 2,2v3.9877a2,2 0 0,1 -2,2h-.69021a2,2 0 0,1 -2-2v-3.9877a2,2 0 0,1 2-2" fill="#535d6c" transform="matrix(.9832,-.18253,.18253,.9832,0,831.15626)"/>
<path d="m-27.19777,488.15305h.69021a2,2 0 0,1 2,2v3.9877a2,2 0 0,1 -2,2h-.69021a2,2 0 0,1 -2-2v-3.9877a2,2 0 0,1 2-2" fill="#535d6c" transform="matrix(.9832,-.18253,.18253,.9832,0,831.15626)"/>
<path d="m-21.07641,489.06201h.69021a2,2 0 0,1 2,2v3.9877a2,2 0 0,1 -2,2h-.69021a2,2 0 0,1 -2-2v-3.9877a2,2 0 0,1 2-2" fill="#535d6c" transform="matrix(.9832,-.18253,.18253,.9832,0,831.15626)"/>
<path d="m-14.95505,489.97098h.69021a2,2 0 0,1 2,2v3.9877a2,2 0 0,1 -2,2h-.69021a2,2 0 0,1 -2-2v-3.9877a2,2 0 0,1 2-2" fill="#535d6c" transform="matrix(.9832,-.18253,.18253,.9832,0,831.15626)"/>
<path d="m-8.83368,490.87994h.69021a2,2 0 0,1 2,2v3.9877a2,2 0 0,1 -2,2h-.69021a2,2 0 0,1 -2-2v-3.9877a2,2 0 0,1 2-2" fill="#535d6c" transform="matrix(.9832,-.18253,.18253,.9832,0,831.15626)"/>
<path d="m-2.71232,491.78891h.69021a2,2 0 0,1 2,2v3.9877a2,2 0 0,1 -2,2h-.69021a2,2 0 0,1 -2-2v-3.9877a2,2 0 0,1 2-2" fill="#535d6c" transform="matrix(.9832,-.18253,.18253,.9832,0,831.15626)"/>
<path d="m3.40904,492.69785h.69021a2,2 0 0,1 2,2v3.9877a2,2 0 0,1 -2,2h-.69021a2,2 0 0,1 -2-2v-3.9877a2,2 0 0,1 2-2" fill="#535d6c" transform="matrix(.9832,-.18253,.18253,.9832,0,831.15626)"/>
<path d="m9.5304,493.60681h.69021a2,2 0 0,1 2,2v3.9877a2,2 0 0,1 -2,2h-.69021a2,2 0 0,1 -2-2v-3.9877a2,2 0 0,1 2-2" fill="#535d6c" transform="matrix(.9832,-.18253,.18253,.9832,0,831.15626)"/>
<path d="m15.65177,494.51578h.69021a2,2 0 0,1 2,2v3.9877a2,2 0 0,1 -2,2h-.69021a2,2 0 0,1 -2-2v-3.9877a2,2 0 0,1 2-2" fill="#535d6c" transform="matrix(.9832,-.18253,.18253,.9832,0,831.15626)"/>
<path d="m21.77313,495.42474h.69021a2,2 0 0,1 2,2v3.9877a2,2 0 0,1 -2,2h-.69021a2,2 0 0,1 -2-2v-3.9877a2,2 0 0,1 2-2" fill="#535d6c" transform="matrix(.9832,-.18253,.18253,.9832,0,831.15626)"/>
<path d="m27.89449,496.33371h.69021a2,2 0 0,1 2,2v3.9877a2,2 0 0,1 -2,2h-.69021a2,2 0 0,1 -2-2v-3.9877a2,2 0 0,1 2-2" fill="#535d6c" transform="matrix(.9832,-.18253,.18253,.9832,0,831.15626)"/>
<path d="m34.01585,497.24268h.69021a2,2 0 0,1 2,2v3.9877a2,2 0 0,1 -2,2h-.69021a2,2 0 0,1 -2-2v-3.9877a2,2 0 0,1 2-2" fill="#535d6c" transform="matrix(.9832,-.18253,.18253,.9832,0,831.15626)"/>
<path d="m40.13721,498.15161h.69021a2,2 0 0,1 2,2v3.9877a2,2 0 0,1 -2,2h-.69021a2,2 0 0,1 -2-2v-3.9877a2,2 0 0,1 2-2" fill="#535d6c" transform="matrix(.9832,-.18253,.18253,.9832,0,831.15626)"/>
<path d="m46.25858,499.06058h.69021a2,2 0 0,1 2,2v3.9877a2,2 0 0,1 -2,2h-.69021a2,2 0 0,1 -2-2v-3.9877a2,2 0 0,1 2-2" fill="#535d6c" transform="matrix(.9832,-.18253,.18253,.9832,0,831.15626)"/>
<path d="m52.37994,499.96954h.69021a2,2 0 0,1 2,2v3.9877a2,2 0 0,1 -2,2h-.69021a2,2 0 0,1 -2-2v-3.9877a2,2 0 0,1 2-2" fill="#535d6c" transform="matrix(.9832,-.18253,.18253,.9832,0,831.15626)"/>
<path d="m58.5013,500.87851h.69021a2,2 0 0,1 2,2v3.9877a2,2 0 0,1 -2,2h-.69021a2,2 0 0,1 -2-2v-3.9877a2,2 0 0,1 2-2" fill="#535d6c" transform="matrix(.9832,-.18253,.18253,.9832,0,831.15626)"/>
<path d="m64.62267,501.78748h.69021a2,2 0 0,1 2,2v3.9877a2,2 0 0,1 -2,2h-.69021a2,2 0 0,1 -2-2v-3.9877a2,2 0 0,1 2-2" fill="#535d6c" transform="matrix(.9832,-.18253,.18253,.9832,0,831.15626)"/>
<path d="m70.74403,502.69644h.69021a2,2 0 0,1 2,2v3.9877a2,2 0 0,1 -2,2h-.69021a2,2 0 0,1 -2-2v-3.9877a2,2 0 0,1 2-2" fill="#535d6c" transform="matrix(.9832,-.18253,.18253,.9832,0,831.15626)"/>
<path d="m76.86539,503.60538h.69021a2,2 0 0,1 2,2v3.9877a2,2 0 0,1 -2,2h-.69021a2,2 0 0,1 -2-2v-3.9877a2,2 0 0,1 2-2" fill="#535d6c" transform="matrix(.9832,-.18253,.18253,.9832,0,831.15626)"/>
<path d="m82.98675,504.51434h.69021a2,2 0 0,1 2,2v3.9877a2,2 0 0,1 -2,2h-.69021a2,2 0 0,1 -2-2v-3.9877a2,2 0 0,1 2-2" fill="#535d6c" transform="matrix(.9832,-.18253,.18253,.9832,0,831.15626)"/>
<path d="m89.10811,505.42331h.69021a2,2 0 0,1 2,2v3.9877a2,2 0 0,1 -2,2h-.69021a2,2 0 0,1 -2-2v-3.9877a2,2 0 0,1 2-2" fill="#535d6c" transform="matrix(.9832,-.18253,.18253,.9832,0,831.15626)"/>
<path d="m95.22947,506.33228h.69021a2,2 0 0,1 2,2v3.9877a2,2 0 0,1 -2,2h-.69021a2,2 0 0,1 -2-2v-3.9877a2,2 0 0,1 2-2" fill="#535d6c" transform="matrix(.9832,-.18253,.18253,.9832,0,831.15626)"/>
<path d="m-156.07681,470.54367h.69021a2,2 0 0,1 2,2v3.9877a2,2 0 0,1 -2,2h-.69021a2,2 0 0,1 -2-2v-3.9877a2,2 0 0,1 2-2" fill="#535d6c" transform="matrix(.9832,-.18253,.18253,.9832,0,831.15626)"/>
<path d="m-149.95544,471.45264h.69021a2,2 0 0,1 2,2v3.9877a2,2 0 0,1 -2,2h-.69021a2,2 0 0,1 -2-2v-3.9877a2,2 0 0,1 2-2" fill="#535d6c" transform="matrix(.9832,-.18253,.18253,.9832,0,831.15626)"/>
<path d="m-143.83409,472.3616h.69021a2,2 0 0,1 2,2v3.9877a2,2 0 0,1 -2,2h-.69021a2,2 0 0,1 -2-2v-3.9877a2,2 0 0,1 2-2" fill="#535d6c" transform="matrix(.9832,-.18253,.18253,.9832,0,831.15626)"/>
<path d="m-137.71272,473.27057h.69021a2,2 0 0,1 2,2v3.9877a2,2 0 0,1 -2,2h-.69021a2,2 0 0,1 -2-2v-3.9877a2,2 0 0,1 2-2" fill="#535d6c" transform="matrix(.9832,-.18253,.18253,.9832,0,831.15626)"/>
<path d="m-131.59137,474.17953h.69021a2,2 0 0,1 2,2v3.9877a2,2 0 0,1 -2,2h-.69021a2,2 0 0,1 -2-2v-3.9877a2,2 0 0,1 2-2" fill="#535d6c" transform="matrix(.9832,-.18253,.18253,.9832,0,831.15626)"/>
<path d="m-125.47,475.0885h.69021a2,2 0 0,1 2,2v3.9877a2,2 0 0,1 -2,2h-.69021a2,2 0 0,1 -2-2v-3.9877a2,2 0 0,1 2-2" fill="#535d6c" transform="matrix(.9832,-.18253,.18253,.9832,0,831.15626)"/>
<path d="m-119.34863,475.99744h.69021a2,2 0 0,1 2,2v3.9877a2,2 0 0,1 -2,2h-.69021a2,2 0 0,1 -2-2v-3.9877a2,2 0 0,1 2-2" fill="#535d6c" transform="matrix(.9832,-.18253,.18253,.9832,0,831.15626)"/>
<path d="m-113.22728,476.9064h.69021a2,2 0 0,1 2,2v3.9877a2,2 0 0,1 -2,2h-.69021a2,2 0 0,1 -2-2v-3.9877a2,2 0 0,1 2-2" fill="#535d6c" transform="matrix(.9832,-.18253,.18253,.9832,0,831.15626)"/>
<path d="m-107.10591,477.81537h.69021a2,2 0 0,1 2,2v3.9877a2,2 0 0,1 -2,2h-.69021a2,2 0 0,1 -2-2v-3.9877a2,2 0 0,1 2-2" fill="#535d6c" transform="matrix(.9832,-.18253,.18253,.9832,0,831.15626)"/>
<path d="m-100.98457,478.72433h.69021a2,2 0 0,1 2,2v3.9877a2,2 0 0,1 -2,2h-.69021a2,2 0 0,1 -2-2v-3.9877a2,2 0 0,1 2-2" fill="#535d6c" transform="matrix(.9832,-.18253,.18253,.9832,0,831.15626)"/>
<path d="m-94.86319,479.6333h.69021a2,2 0 0,1 2,2v3.9877a2,2 0 0,1 -2,2h-.69021a2,2 0 0,1 -2-2v-3.9877a2,2 0 0,1 2-2" fill="#535d6c" transform="matrix(.9832,-.18253,.18253,.9832,0,831.15626)"/>
<path d="m-88.74184,480.54227h.69021a2,2 0 0,1 2,2v3.9877a2,2 0 0,1 -2,2h-.69021a2,2 0 0,1 -2-2v-3.9877a2,2 0 0,1 2-2" fill="#535d6c" transform="matrix(.9832,-.18253,.18253,.9832,0,831.15626)"/>
<path d="m-82.62047,481.4512h.69021a2,2 0 0,1 2,2v3.9877a2,2 0 0,1 -2,2h-.69021a2,2 0 0,1 -2-2v-3.9877a2,2 0 0,1 2-2" fill="#535d6c" transform="matrix(.9832,-.18253,.18253,.9832,0,831.15626)"/>
<path d="m-76.4991,482.36017h.69021a2,2 0 0,1 2,2v3.9877a2,2 0 0,1 -2,2h-.69021a2,2 0 0,1 -2-2v-3.9877a2,2 0 0,1 2-2" fill="#535d6c" transform="matrix(.9832,-.18253,.18253,.9832,0,831.15626)"/>
<path d="m-137.89879,482.12421h.69021a2,2 0 0,1 2,2v3.9877a2,2 0 0,1 -2,2h-.69021a2,2 0 0,1 -2-2v-3.9877a2,2 0 0,1 2-2" fill="#535d6c" transform="matrix(.99923,-.03927,.03927,.99923,0,831.15626)"/>
<path d="m-131.77742,483.03317h.69021a2,2 0 0,1 2,2v3.9877a2,2 0 0,1 -2,2h-.69021a2,2 0 0,1 -2-2v-3.9877a2,2 0 0,1 2-2" fill="#535d6c" transform="matrix(.99923,-.03927,.03927,.99923,0,831.15626)"/>
<path d="m-125.65607,483.94214h.69021a2,2 0 0,1 2,2v3.9877a2,2 0 0,1 -2,2h-.69021a2,2 0 0,1 -2-2v-3.9877a2,2 0 0,1 2-2" fill="#535d6c" transform="matrix(.99923,-.03927,.03927,.99923,0,831.15626)"/>
<path d="m-119.53471,484.8511h.69021a2,2 0 0,1 2,2v3.9877a2,2 0 0,1 -2,2h-.69021a2,2 0 0,1 -2-2v-3.9877a2,2 0 0,1 2-2" fill="#535d6c" transform="matrix(.99923,-.03927,.03927,.99923,0,831.15626)"/>
<path d="m-113.41335,485.76004h.69021a2,2 0 0,1 2,2v3.9877a2,2 0 0,1 -2,2h-.69021a2,2 0 0,1 -2-2v-3.9877a2,2 0 0,1 2-2" fill="#535d6c" transform="matrix(.99923,-.03927,.03927,.99923,0,831.15626)"/>
<path d="m-107.29199,486.66901h.69021a2,2 0 0,1 2,2v3.9877a2,2 0 0,1 -2,2h-.69021a2,2 0 0,1 -2-2v-3.9877a2,2 0 0,1 2-2" fill="#535d6c" transform="matrix(.99923,-.03927,.03927,.99923,0,831.15626)"/>
<path d="m-101.17062,487.57797h.69021a2,2 0 0,1 2,2v3.9877a2,2 0 0,1 -2,2h-.69021a2,2 0 0,1 -2-2v-3.9877a2,2 0 0,1 2-2" fill="#535d6c" transform="matrix(.99923,-.03927,.03927,.99923,0,831.15626)"/>
<path d="m-95.04926,488.48694h.69021a2,2 0 0,1 2,2v3.9877a2,2 0 0,1 -2,2h-.69021a2,2 0 0,1 -2-2v-3.9877a2,2 0 0,1 2-2" fill="#535d6c" transform="matrix(.99923,-.03927,.03927,.99923,0,831.15626)"/>
<path d="m172.21866,530.9837h.69021a2,2 0 0,1 2,2v3.9877a2,2 0 0,1 -2,2h-.69021a2,2 0 0,1 -2-2v-3.9877a2,2 0 0,1 2-2" fill="#535d6c" transform="matrix(.97257,-.2326,.2326,.97257,0,831.15626)"/>
<path d="m116.58972,509.54776h.69021a2,2 0 0,1 2,2v3.9877a2,2 0 0,1 -2,2h-.69021a2,2 0 0,1 -2-2v-3.9877a2,2 0 0,1 2-2" fill="#535d6c" transform="matrix(.9832,-.18253,.18253,.9832,0,831.15626)"/>
<path d="m122.71108,510.45673h.69021a2,2 0 0,1 2,2v3.9877a2,2 0 0,1 -2,2h-.69021a2,2 0 0,1 -2-2v-3.9877a2,2 0 0,1 2-2" fill="#535d6c" transform="matrix(.9832,-.18253,.18253,.9832,0,831.15626)"/>
<path d="m128.83244,511.36569h.69021a2,2 0 0,1 2,2v3.9877a2,2 0 0,1 -2,2h-.69021a2,2 0 0,1 -2-2v-3.9877a2,2 0 0,1 2-2" fill="#535d6c" transform="matrix(.9832,-.18253,.18253,.9832,0,831.15626)"/>
<path d="m134.95381,512.2746h.69021a2,2 0 0,1 2,2v3.9877a2,2 0 0,1 -2,2h-.69021a2,2 0 0,1 -2-2v-3.9877a2,2 0 0,1 2-2" fill="#535d6c" transform="matrix(.9832,-.18253,.18253,.9832,0,831.15626)"/>
<path d="m141.07518,513.18359h.69021a2,2 0 0,1 2,2v3.9877a2,2 0 0,1 -2,2h-.69021a2,2 0 0,1 -2-2v-3.9877a2,2 0 0,1 2-2" fill="#535d6c" transform="matrix(.9832,-.18253,.18253,.9832,0,831.15626)"/>
<path d="m147.19653,514.09253h.69021a2,2 0 0,1 2,2v3.9877a2,2 0 0,1 -2,2h-.69021a2,2 0 0,1 -2-2v-3.9877a2,2 0 0,1 2-2" fill="#535d6c" transform="matrix(.9832,-.18253,.18253,.9832,0,831.15626)"/>
<path d="m153.3179,515.00153h.69021a2,2 0 0,1 2,2v3.9877a2,2 0 0,1 -2,2h-.69021a2,2 0 0,1 -2-2v-3.9877a2,2 0 0,1 2-2" fill="#535d6c" transform="matrix(.9832,-.18253,.18253,.9832,0,831.15626)"/>
<path d="m159.43927,515.91046h.69021a2,2 0 0,1 2,2v3.9877a2,2 0 0,1 -2,2h-.69021a2,2 0 0,1 -2-2v-3.9877a2,2 0 0,1 2-2" fill="#535d6c" transform="matrix(.9832,-.18253,.18253,.9832,0,831.15626)"/>
<path d="m165.56062,516.81946h.69021a2,2 0 0,1 2,2v3.9877a2,2 0 0,1 -2,2h-.69021a2,2 0 0,1 -2-2v-3.9877a2,2 0 0,1 2-2" fill="#535d6c" transform="matrix(.9832,-.18253,.18253,.9832,0,831.15626)"/>
<path d="m284.72446,531.71521h.69021a2,2 0 0,1 2,2v3.9877a2,2 0 0,1 -2,2h-.69021a2,2 0 0,1 -2-2v-3.9877a2,2 0 0,1 2-2" fill="#535d6c" transform="matrix(.9832,-.18253,.18253,.9832,0,831.15626)"/>
<path d="m178.39308,532.13h.69021a2,2 0 0,1 2,2v3.9877a2,2 0 0,1 -2,2h-.69021a2,2 0 0,1 -2-2v-3.9877a2,2 0 0,1 2-2" fill="#535d6c" transform="matrix(.97257,-.2326,.2326,.97257,0,831.15626)"/>
<path d="m184.47362,533.25885h.69021a2,2 0 0,1 2,2v3.9877a2,2 0 0,1 -2,2h-.69021a2,2 0 0,1 -2-2v-3.9877a2,2 0 0,1 2-2" fill="#535d6c" transform="matrix(.97257,-.2326,.2326,.97257,0,831.15626)"/>
<path d="m190.55415,534.38776h.69021a2,2 0 0,1 2,2v3.9877a2,2 0 0,1 -2,2h-.69021a2,2 0 0,1 -2-2v-3.9877a2,2 0 0,1 2-2" fill="#535d6c" transform="matrix(.97257,-.2326,.2326,.97257,0,831.15626)"/>
<path d="m196.63467,535.5166h.69021a2,2 0 0,1 2,2v3.9877a2,2 0 0,1 -2,2h-.69021a2,2 0 0,1 -2-2v-3.9877a2,2 0 0,1 2-2" fill="#535d6c" transform="matrix(.97257,-.2326,.2326,.97257,0,831.15626)"/>
<path d="m202.71523,536.64551h.69021a2,2 0 0,1 2,2v3.9877a2,2 0 0,1 -2,2h-.69021a2,2 0 0,1 -2-2v-3.9877a2,2 0 0,1 2-2" fill="#535d6c" transform="matrix(.97257,-.2326,.2326,.97257,0,831.15626)"/>
<path d="m208.79575,537.77435h.69021a2,2 0 0,1 2,2v3.9877a2,2 0 0,1 -2,2h-.69021a2,2 0 0,1 -2-2v-3.9877a2,2 0 0,1 2-2" fill="#535d6c" transform="matrix(.97257,-.2326,.2326,.97257,0,831.15626)"/>
<path d="m214.8763,538.9032h.69021a2,2 0 0,1 2,2v3.9877a2,2 0 0,1 -2,2h-.69021a2,2 0 0,1 -2-2v-3.9877a2,2 0 0,1 2-2" fill="#535d6c" transform="matrix(.97257,-.2326,.2326,.97257,0,831.15626)"/>
<path d="m220.95683,540.0321h.69021a2,2 0 0,1 2,2v3.9877a2,2 0 0,1 -2,2h-.69021a2,2 0 0,1 -2-2v-3.9877a2,2 0 0,1 2-2" fill="#535d6c" transform="matrix(.97257,-.2326,.2326,.97257,0,831.15626)"/>
<path d="m227.03737,541.16095h.69021a2,2 0 0,1 2,2v3.9877a2,2 0 0,1 -2,2h-.69021a2,2 0 0,1 -2-2v-3.9877a2,2 0 0,1 2-2" fill="#535d6c" transform="matrix(.97257,-.2326,.2326,.97257,0,831.15626)"/>
<path d="m233.12823,541.86694h.69021a2,2 0 0,1 2,2v3.9877a2,2 0 0,1 -2,2h-.69021a2,2 0 0,1 -2-2v-3.9877a2,2 0 0,1 2-2" fill="#535d6c" transform="matrix(.97257,-.2326,.2326,.97257,0,831.15626)"/>
<path d="m240.97205,542.97772h.69021a2,2 0 0,1 2,2v3.9877a2,2 0 0,1 -2,2h-.69021a2,2 0 0,1 -2-2v-3.9877a2,2 0 0,1 2-2" fill="#535d6c" transform="matrix(.97257,-.2326,.2326,.97257,0,831.15626)"/>
<path d="m248.33363,544.26642h.69021a2,2 0 0,1 2,2v3.9877a2,2 0 0,1 -2,2h-.69021a2,2 0 0,1 -2-2v-3.9877a2,2 0 0,1 2-2" fill="#535d6c" transform="matrix(.97257,-.2326,.2326,.97257,0,831.15626)"/>
</g>
<path d="m25.45706,1311.1161 15.6818-.2851c0,0-.34233,8.6003.85537,12.8306s6.27272,11.69 6.27272,11.69l-17.39254.2852c0,0-2.85476-6.394-3.99173-10.5496s-1.42562-13.9711-1.42562-13.9711z" fill="none" stroke="#808080" stroke-width=".2"/>
<path d="m-145.98333,1308.6884 14.54131-.2851c0,0 .79817,8.6003 1.99586,12.8306s6.27272,11.69 6.27272,11.69l-14.82643.0001c0,0-4.28038-6.394-5.41735-10.5496s-2.56611-13.686-2.56611-13.686z" fill="none" stroke="#808080" stroke-width=".2"/>
<path d="m-65.86357,1338.9115h32.78923c0,0 6.73712,9.9788 11.11982,13.9711s14.82643,9.6942 14.82643,9.6942l-25.09089-1.4256-20.52891-2.281c0,0-5.51936-6.6332-7.69834-9.9793s-5.41735-9.9794-5.41735-9.9794z" fill="none" stroke="#808080" stroke-width=".2"/>
<path d="m386.91286,1277.3248 19.67355-2.5661c0,0-.74027,13.516.57024,20.814s8.55371,21.0992 8.55371,21.0992l-20.24378,4.2768c0,0-5.07813-10.6663-6.84297-17.9627s-1.71075-25.6612-1.71075-25.6612z" fill="none" stroke="#808080" stroke-width=".2"/>
<path d="m263.97563,1300.1347 16.39461-.8554c0,0 .53169,7.8673 1.63945,12.4742s6.20146,14.4701 6.20146,14.4701l-18.24792,1.283c0,0-3.2829-9.104-4.27686-13.6859s-1.71074-13.686-1.71074-13.686z" fill="none" stroke="#808080" stroke-width=".2"/>
<path d="m-131.72715,1321.2339c0,.9448-.76593,1.7107-1.71075,1.7107s-1.71074-.7659-1.71074-1.7107 .76593-1.7108 1.71074-1.7108 1.71075.766 1.71075,1.7108z" fill="#535d6c"/>
<path d="m-131.72715,1321.2339c0,.9448-.76593,1.7107-1.71075,1.7107s-1.71074-.7659-1.71074-1.7107 .76593-1.7108 1.71074-1.7108 1.71075.766 1.71075,1.7108z" fill="#535d6c" transform="translate(170,2)"/>
<path d="m-131.72715,1321.2339c0,.9448-.76593,1.7107-1.71075,1.7107s-1.71074-.7659-1.71074-1.7107 .76593-1.7108 1.71074-1.7108 1.71075.766 1.71075,1.7108z" fill="#535d6c" transform="translate(410,-8)"/>
<path d="m-131.72715,1321.2339c0,.9448-.76593,1.7107-1.71075,1.7107s-1.71074-.7659-1.71074-1.7107 .76593-1.7108 1.71074-1.7108 1.71075.766 1.71075,1.7108z" fill="#535d6c" transform="translate(536,-24)"/>
</g>
</svg>
