<?xml version="1.0" standalone="no"?>
<!DOCTYPE svg PUBLIC "-//W3C//DTD SVG 20010904//EN"
 "http://www.w3.org/TR/2001/REC-SVG-20010904/DTD/svg10.dtd">
<svg version="1.0" xmlns="http://www.w3.org/2000/svg"
 width="512.000000pt" height="512.000000pt" viewBox="0 0 512.000000 512.000000"
 preserveAspectRatio="xMidYMid meet">
<metadata>
Created by potrace 1.13, written by Peter Selinger 2001-2015
</metadata>
<g transform="translate(0.000000,512.000000) scale(0.100000,-0.100000)"
fill="#000000" stroke="none">
<path d="M0 4525 l0 -595 40 0 40 0 0 555 0 555 555 0 555 0 0 40 0 40 -595 0
-595 0 0 -595z"/>
<path d="M3930 5080 l0 -40 555 0 555 0 0 -555 0 -555 40 0 40 0 0 595 0 595
-595 0 -595 0 0 -40z"/>
<path d="M2450 2974 c-158 -43 -285 -184 -313 -351 -38 -222 128 -447 360
-486 221 -38 447 129 486 360 43 248 -172 494 -428 492 -27 0 -75 -7 -105 -15z
m210 -80 c306 -91 337 -517 48 -649 -198 -90 -421 10 -482 215 -22 72 -20 135
5 216 18 57 31 77 83 130 51 51 74 66 127 83 78 24 148 26 219 5z"/>
<path d="M0 595 l0 -595 595 0 595 0 0 40 0 40 -555 0 -555 0 0 555 0 555 -40
0 -40 0 0 -595z"/>
<path d="M5040 635 l0 -555 -555 0 -555 0 0 -40 0 -40 595 0 595 0 0 595 0
595 -40 0 -40 0 0 -555z"/>
</g>
</svg>
