<?xml version="1.0" encoding="UTF-8" standalone="no"?>
<svg viewBox="0 0 128 128" xmlns="http://www.w3.org/2000/svg">
<defs>
<linearGradient gradientUnits="userSpaceOnUse" id="linearGradient3953" x1="68.16045" x2="54.17428" y1="1021.2032" y2="856.37878">
<stop offset="0" stop-color="#e6e6e6"/>
<stop offset="1" stop-color="#fff"/>
</linearGradient>
<linearGradient gradientUnits="userSpaceOnUse" id="linearGradient3955" x1="46.38451" x2="43.72891" y1="1001.5517" y2="924.18512">
<stop offset="0"/>
<stop offset="1" stop-color="#4d4d4d"/>
</linearGradient>
</defs>
<g transform="matrix(.88639,-.23751,.23751,.88639,-225.34526,-799.31152)">
<g transform="translate(80)">
<path d="m-68.65625,1004.5312h85.65625v-61.74995h-85.65625v61.74995z" fill-rule="evenodd" opacity=".09091"/>
<path d="m-69.15625,1005.0312h86.65625v-62.74995h-86.65625v62.74995z" fill-rule="evenodd" opacity=".09091"/>
<path d="m-69.65625,1005.5312h87.65625v-63.74995h-87.65625v63.74995z" fill-rule="evenodd" opacity=".09091"/>
<path d="m-70.15625,941.3125c.02091,21.56242-.04177,43.20844.03125,64.7187 29.51034-.062 59.27094.1252 88.625-.094-.06304-21.52029.12573-43.29239-.09375-64.65625-29.51034.0209-59.10427-.0417-88.5625.0312z" fill-rule="evenodd" opacity=".09091"/>
<path d="m-70.28125,940.8125c-1.10374,1.4558.03744,4.17293-.375,6 .06309,19.84821-.12579,39.74352.09375,59.5625 13.13978.3687 26.58707.049 39.84375.1562 16.50601-.063 33.12941.1258 49.5625-.094 .36696-15.6789.05031-31.6476.15625-47.4372-.11911-5.99782.2285-12.22724-.15625-18.09375-29.58977-.2921-59.3914-.0413-89.0625-.125l-.0625.0312z" fill-rule="evenodd" opacity=".09091"/>
<path d="m-70.21048,940.29578h88.76954c.51938,0 .9375.41812.9375.9375v64.86912c0,.5194-.41813.9375-.9375.9375h-88.76954c-.51938,0-.9375-.4181-.9375-.9375v-64.86912c0-.51938.41813-.9375.9375-.9375z" fill-rule="evenodd" opacity=".09091"/>
<path d="m-70.5,939.8125c-2.44004,1.08741-.57554,4.82301-1.15625,6.90625 .08495,19.97026-.16883,40.01014.125,59.93745 1.38361,2.0591 4.72767.2889 6.8125.875 27.95843-.084 55.99865.1676 83.90625-.125 1.95442-1.6834.23689-5.0523.8125-7.3124-.08481-19.8167.16864-39.68244-.125-59.4688-1.65303-2.02757-5.04995-.2489-7.3125-.84375-27.68662.0209-55.3802-.0418-83.0625.0312z" fill-rule="evenodd" opacity=".09091"/>
<path d="m-70.5625,939.3125c-3.92269,2.0972-.40819,8.41372-1.59375,11.90625 .20556,18.61457-.39929,37.37951.28125,55.90625 3.65131,2.6351 9.38424-.062 13.65625.9062 25.93786-.2388 52.11107.4714 77.90625-.3437 2.36945-4.4522-.06328-10.62501.8125-15.59375-.28103-17.29429.54183-34.86379-.375-52-4.08416-2.43022-9.9593.10528-14.5625-.8125-25.37411.021-50.75522-.0419-76.125.0312z" fill-rule="evenodd" opacity=".09091"/>
<path d="m-70.46875,938.8125c-4.72856,1.67052-1.01166,8.77155-2.1875,12.40625 .25367,18.69276-.49135,37.57052.34375,56.15625 3.62588,3.103 9.69302.1093 14.09375,1.1562 25.95886-.1938 52.07394.3836 77.9375-.2812 3.32218-3.4906.20429-9.76329 1.28125-14.15625-.27711-18.02089.53658-36.26338-.375-54.15625-3.61899-3.11938-9.67905-.0996-14.0625-1.15625-25.67578.0209-51.3619-.0418-77.03125.0312z" fill-rule="evenodd" opacity=".09091"/>
<path d="m-70.5625,938.3125c-5.16493,1.65051-1.49807,9.03775-2.59375,12.90625 .22568,18.69936-.44003,37.53968.3125,56.15625 2.98961,3.9037 9.43313.5402 13.625,1.6562 26.37243-.2375 52.92443.4696 79.1875-.3437 3.72263-3.5212.41951-10.04493 1.53125-14.59375-.25651-18.05526.49523-36.30746-.34375-54.25-3.49255-3.83216-10.06624-.40711-14.59375-1.5625-25.70745.0209-51.42187-.0418-77.125.0312z" fill-rule="evenodd" opacity=".09091"/>
<path d="m-70.625,937.8125c-5.62018,1.57816-2.02586,9.31721-3.03125,13.40625 .24893,18.7604-.485,37.67206.34375,56.34375 3.26335,4.4734 10.42624.7573 15.09375,1.9687 26.05676-.1933 52.23839.3829 78.21875-.2812 4.46146-3.3618.82598-10.43736 2-15.15625-.13434-18.03383.26258-36.12557-.1875-54.125-3.21038-4.80906-10.52853-.95591-15.25-2.1875-25.72828.0209-51.46354-.0418-77.1875.0312z" fill-rule="evenodd" opacity=".09091"/>
</g>
<path d="m8.85202,940.29578h90.64454v66.74412h-90.64454z" fill="url(#linearGradient3953)" fill-rule="evenodd"/>
<path d="m14.15625,945.59375v56.12505h80.03125v-56.12505h-80.03125z" fill="url(#linearGradient3955)" fill-rule="evenodd"/>
</g>
<g transform="matrix(.88639,.23751,-.23751,.88639,258.15529,-801.29864)">
<g transform="translate(80)">
<path d="m-68.65625,1004.5312h85.65625v-61.74995h-85.65625v61.74995z" fill-rule="evenodd" opacity=".09091"/>
<path d="m-69.15625,1005.0312h86.65625v-62.74995h-86.65625v62.74995z" fill-rule="evenodd" opacity=".09091"/>
<path d="m-69.65625,1005.5312h87.65625v-63.74995h-87.65625v63.74995z" fill-rule="evenodd" opacity=".09091"/>
<path d="m-70.15625,941.3125c.02091,21.56242-.04177,43.20844.03125,64.7187 29.51034-.062 59.27094.1252 88.625-.094-.06304-21.52029.12573-43.29239-.09375-64.65625-29.51034.0209-59.10427-.0417-88.5625.0312z" fill-rule="evenodd" opacity=".09091"/>
<path d="m-70.28125,940.8125c-1.10374,1.4558.03744,4.17293-.375,6 .06309,19.84821-.12579,39.74352.09375,59.5625 13.13978.3687 26.58707.049 39.84375.1562 16.50601-.063 33.12941.1258 49.5625-.094 .36696-15.6789.05031-31.6476.15625-47.4372-.11911-5.99782.2285-12.22724-.15625-18.09375-29.58977-.2921-59.3914-.0413-89.0625-.125l-.0625.0312z" fill-rule="evenodd" opacity=".09091"/>
<path d="m-70.21048,940.29578h88.76954c.51938,0 .9375.41812.9375.9375v64.86912c0,.5194-.41813.9375-.9375.9375h-88.76954c-.51938,0-.9375-.4181-.9375-.9375v-64.86912c0-.51938.41813-.9375.9375-.9375z" fill-rule="evenodd" opacity=".09091"/>
<path d="m-70.5,939.8125c-2.44004,1.08741-.57554,4.82301-1.15625,6.90625 .08495,19.97026-.16883,40.01014.125,59.93745 1.38361,2.0591 4.72767.2889 6.8125.875 27.95843-.084 55.99865.1676 83.90625-.125 1.95442-1.6834.23689-5.0523.8125-7.3124-.08481-19.8167.16864-39.68244-.125-59.4688-1.65303-2.02757-5.04995-.2489-7.3125-.84375-27.68662.0209-55.3802-.0418-83.0625.0312z" fill-rule="evenodd" opacity=".09091"/>
<path d="m-70.5625,939.3125c-3.92269,2.0972-.40819,8.41372-1.59375,11.90625 .20556,18.61457-.39929,37.37951.28125,55.90625 3.65131,2.6351 9.38424-.062 13.65625.9062 25.93786-.2388 52.11107.4714 77.90625-.3437 2.36945-4.4522-.06328-10.62501.8125-15.59375-.28103-17.29429.54183-34.86379-.375-52-4.08416-2.43022-9.9593.10528-14.5625-.8125-25.37411.021-50.75522-.0419-76.125.0312z" fill-rule="evenodd" opacity=".09091"/>
<path d="m-70.46875,938.8125c-4.72856,1.67052-1.01166,8.77155-2.1875,12.40625 .25367,18.69276-.49135,37.57052.34375,56.15625 3.62588,3.103 9.69302.1093 14.09375,1.1562 25.95886-.1938 52.07394.3836 77.9375-.2812 3.32218-3.4906.20429-9.76329 1.28125-14.15625-.27711-18.02089.53658-36.26338-.375-54.15625-3.61899-3.11938-9.67905-.0996-14.0625-1.15625-25.67578.0209-51.3619-.0418-77.03125.0312z" fill-rule="evenodd" opacity=".09091"/>
<path d="m-70.5625,938.3125c-5.16493,1.65051-1.49807,9.03775-2.59375,12.90625 .22568,18.69936-.44003,37.53968.3125,56.15625 2.98961,3.9037 9.43313.5402 13.625,1.6562 26.37243-.2375 52.92443.4696 79.1875-.3437 3.72263-3.5212.41951-10.04493 1.53125-14.59375-.25651-18.05526.49523-36.30746-.34375-54.25-3.49255-3.83216-10.06624-.40711-14.59375-1.5625-25.70745.0209-51.42187-.0418-77.125.0312z" fill-rule="evenodd" opacity=".09091"/>
<path d="m-70.625,937.8125c-5.62018,1.57816-2.02586,9.31721-3.03125,13.40625 .24893,18.7604-.485,37.67206.34375,56.34375 3.26335,4.4734 10.42624.7573 15.09375,1.9687 26.05676-.1933 52.23839.3829 78.21875-.2812 4.46146-3.3618.82598-10.43736 2-15.15625-.13434-18.03383.26258-36.12557-.1875-54.125-3.21038-4.80906-10.52853-.95591-15.25-2.1875-25.72828.0209-51.46354-.0418-77.1875.0312z" fill-rule="evenodd" opacity=".09091"/>
</g>
<path d="m8.85202,940.29578h90.64454v66.74412h-90.64454z" fill="url(#linearGradient3953)" fill-rule="evenodd"/>
<path d="m14.15625,945.59375v56.12505h80.03125v-56.12505h-80.03125z" fill="url(#linearGradient3955)" fill-rule="evenodd"/>
</g>
</svg>
