<?xml version="1.0" encoding="UTF-8" standalone="no"?>
<svg viewBox="0 0 744.09448 1052.3622" xmlns="http://www.w3.org/2000/svg">
<defs>
<linearGradient gradientTransform="matrix(1.50727,0,0,1.9946,-104.1767,-208.9275)" gradientUnits="userSpaceOnUse" id="linearGradient2451" x1="353.4772" x2="372.08038" y1="325.17239" y2="328.44955">
<stop offset="0"/>
<stop offset="1" stop-opacity="0"/>
</linearGradient>
</defs>
<path d="m197.70226,342.35407 3.06475-15.32382h-10.72666l-7.66191,10.72666 15.32382,4.59716z" fill="#e4e4ff" fill-rule="evenodd" stroke="#000" stroke-width="3.875"/>
<path d="m373.92601,452.68546c0,0-12.25905,6.12953-9.19428-1.53238s12.25903-9.19428 1.53237-7.66191-1.53237,9.19429-10.72666,1.53238 7.66191-12.25904 7.66191-12.25904l21.45332-1.53237-10.72666,21.45332z" fill="#7171af" fill-rule="evenodd" stroke="#000" stroke-opacity=".27568" stroke-width="1.7339"/>
<path d="m372.39362,449.62069c3.06477,16.85619 18.38858,15.32382 18.38858,15.32382s10.72666,1.53237 24.51807,0 21.45334,1.53237 27.58285-3.06477 7.66191-3.06475 10.72668-9.19428 4.59714-10.72666 3.06475-15.3238-1.53238-10.72668-7.66191-13.79143-13.79141-3.06475-13.79141-3.06475l-50.56856,4.59713c0,0-6.12952-1.53238-9.19428,7.6619s-3.06477,16.85618-3.06477,16.85618z" fill="#e4e4ff" fill-rule="evenodd" stroke="#000" stroke-width="3.875"/>
<path d="m141.00418,392.92263c13.79141,7.66189 81.21616,30.6476 87.34568,30.6476s39.8419,4.59714 47.5038,4.59714 85.8133-3.06476 124.12281-6.12953 84.28093-9.19427 110.33139-10.72666 117.9933-9.19428 147.10854-13.79141 50.56856-24.5181 50.56856-24.5181 6.12952-4.59714 4.59713-10.72666-27.58284-18.38857-27.58284-18.38857-4.59714-6.12953-22.98571-10.72666-22.98571-6.12953-36.77713-7.6619-95.00759,4.59714-127.18758,7.6619-199.20947,18.38857-199.20947,18.38857-30.6476,3.06475-58.23045,0-29.11524-3.06476-47.50381-12.25905-96.53995-84.28093-96.53995-84.28093l-19.92096,4.59716 64.35999,114.92853-7.66191,1.53238c0,0 1.53238,7.66189 7.66191,16.85619z" fill="#e4e4ff" fill-rule="evenodd" stroke="#000" stroke-width="3.875"/>
<path d="m373.92601,413.24659c0,0 88.87807-21.45332 113.39614-19.92094s6.12953,12.25905 6.12953,12.25905-15.3238,7.66189-32.17999,6.12953c-19.92094,7.66189-87.34568,1.53236-87.34568,1.53236z" fill-opacity=".27568" fill-rule="evenodd"/>
<path d="m335.6165,420.50548c6.12952-4.59716 101.13711-18.38858 107.26662-18.38858s16.85619,3.06476 10.72668,7.6619-332.52658,101.13711-332.52658,101.13711-24.51807,3.06477-29.11521-4.59714-26.05047-26.05046-26.05047-26.05046l18.38856-1.53239 21.45332,16.85619 229.85708-75.08663z" fill="#e4e4ff" fill-rule="evenodd" stroke="#000" stroke-width="3.875"/>
<path d="m494.98406,331.62741 22.98571-64.35999-22.98571-30.6476h-15.3238l12.25905,30.6476-55.1657,70.48949 58.23045-6.1295z" fill="#e4e4ff" fill-rule="evenodd" stroke="#000" stroke-width="3.875"/>
<path d="m173.18416,389.85786-131.78472,32.17998-16.85619-1.53236c0,0-9.19428-3.06478-1.53238-6.12953s105.73425-27.58285 105.73425-27.58285 16.85619-6.12952 27.58285-3.06477 16.85618,6.12953 16.85618,6.12953z" fill="#e4e4ff" fill-rule="evenodd" stroke="#000" stroke-width="3.875"/>
<path d="m219.15558,397.51977c0,0 332.52656-26.05048 372.36846-29.11524" fill="none" stroke="#000" stroke-dasharray="8.8750000 8.8750000" stroke-width="8.875"/>
<path d="m635.96307,351.54835 1.53237,9.19427 16.85619-1.53236c0,0 3.06477,1.53236 15.32382-4.59716s13.79141-10.72666 13.79141-10.72666l-9.19428-6.12953c0,0 1.53239,6.12953-7.66191,7.66191s-30.6476,6.12953-30.6476,6.12953z" fill-opacity=".22162" fill-rule="evenodd" stroke="#000" stroke-width="2.625"/>
<path d="m436.75361,459.00088c0,0-5.23188-4.33421-6.12952-12.44494-3.06477-9.19428-1.43943-10.18489 3.06475-16.85619 6.12953-6.12952 6.12953-7.66191 10.72667-4.59714s8.29663,4.59714 7.6619,12.25905c1.53239,7.66189 2.07416,12.80081-4.05536,15.86558-3.42064,5.23186-11.26844,5.77364-11.26844,5.77364z" fill="url(#linearGradient2451)" fill-rule="evenodd"/>
<path d="m105.75942,497.1245 7.66191,7.66189 199.20946-70.48952c0,0-182.35327,56.6981-191.54757,59.76285s-15.3238,3.06478-15.3238,3.06478z" fill-opacity=".27568" fill-rule="evenodd"/>
<path d="m493.45168,268.7998 19.92095-1.53238c0,0-3.06477-3.06476-18.38857,13.79143s-33.71237,35.24474-33.71237,35.24474l32.17999-47.50379z" fill-opacity=".27568" fill-rule="evenodd"/>
<path d="m145.60132,371.46929 82.74854-16.85619c0,0-35.24476,9.19429-49.03617,16.85619s-33.71237,0-33.71237,0z" fill-opacity=".27568" fill-rule="evenodd"/>
<path d="m196.16987,353.08073c0,0 1.53239,3.06476-18.38857-12.25905s-76.61902-73.55426-76.61902-73.55426l75.08664,84.28093c0,0 3.06477,7.66191 10.72668,6.12952s9.19427-4.59714 9.19427-4.59714z" fill-opacity=".27568" fill-rule="evenodd"/>
<path d="m376.99076,441.9588c0,9.19428 0,12.25903 3.06477,15.3238s42.90665-7.66191 42.90665-7.66191-15.3238-1.53237-29.11523-4.59714-16.85619-3.06475-16.85619-3.06475z" fill-opacity=".27568" fill-rule="evenodd"/>
</svg>
