<?xml version="1.0" encoding="UTF-8" standalone="no"?>
<svg width="640" xmlns="http://www.w3.org/2000/svg" xmlns:xlink="http://www.w3.org/1999/xlink" height="480">
 <defs>
  <linearGradient id="linearGradient2332" y2="6.3337" xlink:href="#linearGradient2234" x2="-1.6539" gradientTransform="scale(1.5881 .62968)" y1="6.3337" x1="-1.6921"/>
  <linearGradient id="linearGradient2330" y2="5.3738" xlink:href="#linearGradient2234" x2="-.68919" gradientTransform="scale(1.6188 .61772)" y1="5.3738" x1="-.21740"/>
  <linearGradient id="linearGradient2334" y2="1.1701" xlink:href="#linearGradient2234" x2="-.54105" gradientTransform="scale(1.2991 .76978)" y1="1.1701" x1=".27563"/>
  <linearGradient id="linearGradient2328" y2="4.4535" xlink:href="#linearGradient2234" x2="-.01044" gradientTransform="scale(2.1814 .45842)" y1="4.4535" x1=".029996"/>
  <linearGradient id="linearGradient2324" y2="-.072759" xlink:href="#linearGradient2234" x2="-.31479" gradientTransform="scale(.96831 1.0327)" y1="-.072759" x1="2.021"/>
  <linearGradient id="linearGradient2234">
   <stop id="stop2236" stop-color="#c7e9ff" offset="0"/>
   <stop id="stop2242" stop-color="#7d9cc3" offset="1"/>
   <stop id="stop2238" stop-color="#c7e9ff" stop-opacity="0" offset="1"/>
  </linearGradient>
  <linearGradient id="linearGradient2326" y2="-.00314" xlink:href="#linearGradient2234" x2="-1.8292" gradientTransform="scale(.78238 1.2782)" y1="-.00314" x1="4.9884"/>
 </defs>
 <g id="layer1">
  <g id="g2302" fill-rule="evenodd">
   <g stroke="#000">
    <path id="path2212" fill="url(#linearGradient2324)" d="m-17.495 238.01l-3.8714-27.1-21.293-1.9357-1.9357 11.614 27.1 17.421z"/>
    <path id="path2210" fill="url(#linearGradient2326)" d="m410.29 239.94l-42.585-112.27-32.907-5.8071s1.9357 67.749 0 96.785-1.9357 30.971-1.9357 30.971l77.428-9.6785z"/>
    <path id="path2204" fill="url(#linearGradient2328)" d="m-123.96 272.85c9.6785-5.8071 29.035-5.8071 29.035-5.8071l-69.685-116.14 36.778-3.8714 137.43 110.33 642.65-29.036s58.071 1.9357 81.299 7.7428 36.778 21.293 46.457 25.164c9.6784 3.8714 29.036 9.6785 30.971 21.293 1.9357 11.614 3.8715 13.55-9.6784 21.293-13.55 7.7428-67.749 21.293-83.235 23.228-15.486 1.9357-255.51 5.8071-265.19 9.6785-9.6785 3.8714-50.328 13.55-61.942 13.55s-133.56 1.9357-147.11-1.9357-185.83-9.6785-205.18-13.55c-19.357-3.8714-90.978-19.357-102.59-23.228-11.614-3.8714-48.392-11.614-56.135-19.357-7.7428-7.7428-3.8714-19.357-3.8714-19.357z"/>
   </g>
   <path id="path2298" fill-opacity=".286" d="m-52.544 314.95s71.052 14.017 101.73 15.418c30.681 1.4016 132.41 1.4016 250.3 2.8033 117.88 1.4017 529.66-30.837 474.75-16.82-54.903 14.017-48.444 12.615-69.437 14.017l-253.52 8.41s-24.222 7.0083-38.755 8.41-159.87 1.4017-159.87 1.4017l-79.126-5.6067s-114.65-2.8033-130.8-5.6067c-16.148-2.8033-95.274-22.427-95.274-22.427z"/>
   <g stroke="#000">
    <path id="path2206" fill="url(#linearGradient2330)" d="m-98.794 294.14l-73.556 46.457 36.778-3.8714s98.721-38.714 100.66-40.65c1.9357-1.9357 21.293-5.8071 0-9.6785s-63.878 7.7428-63.878 7.7428z"/>
    <path id="path2214" fill="url(#linearGradient2332)" d="m296.18 394.1c5.1383-2.2838 21.657-6.5738 39.649-9.2055-0.84814 0.79382 49.616-10.82 55.423-0.12506 5.8071 6.6988 6.8239 8.5095 7.6449 22.978-1.4626 9.9014-3.5234 24.272-13.077 25.985-13.55 0-51.372-0.22296-82.343-6.03-30.971-5.8071-42.585-7.7428-42.585-7.7428l1.9357-17.421 33.353-8.4387z"/>
    <path id="path2208" fill="url(#linearGradient2334)" d="m267.05 342.53c-15.486 23.228-34.843 44.521-34.843 44.521l-187.76 141.31s5.807 11.614 25.164 3.8713c19.357-7.7428 240.03-137.44 240.03-137.44l87.106-58.071s13.55-3.8714 0-9.6785-40.65-3.8714-67.749 0c-27.1 3.8714-61.942 15.486-61.942 15.486z"/>
    <g fill="none">
     <path id="path2216" stroke-width="4.3" stroke-dasharray="4.3000000 4.3000000" d="m46.383 299.95l172.28-1.9357"/>
     <path id="path2218" stroke-width="4.5" stroke-dasharray="4.5000000 4.5000000" d="m261.25 296.08l197.44-1.9357"/>
     <path id="path2220" stroke-width="4.9" stroke-dasharray="4.9000000 4.9000000" d="m507.08 290.27l152.92-1.9357"/>
     <g stroke-opacity=".47">
      <path id="path2222" d="m5.7336 307.2c-1.413-6.4592-0.2381 1.6148-2.1738-9.9994-0.52275-7.779 0.15529-9.751 1.3664-14.999l15.165 0.7246s-0.8074 1.532-0.8074 11.21c0 9.6785 1.8529 10.118 3.2658 14.559l-16.816-1.4958z"/>
      <path id="path2224" d="m233.74 315.23s-2.6603-3.1106-4.596-16.66c-1.9357-13.55 1.1283-18.301 1.7339-19.109l18.834-0.4865s-1.9357 9.3214-0.40375 19.44c1.1283 7.4944 3.7058 14.274 4.9169 16.899l-20.485-0.0828z"/>
      <path id="path2226" d="m472.24 313.5s-4.1923-9.7613-4.1923-19.44c0-9.6785 1.7338-18.87 1.7338-18.87l20.568-0.2018c-0.40375 3.0278-1.0092 10.118-1.0092 17.861 0 7.7428 4.1922 20.128 4.1922 20.128l-21.293 0.5227z"/>
      <path id="path2228" d="m679.15 309.54s-2.945-6.0452-4.596-20.806c-0.23816-13.55-0.082886-23.43 0.92633-23.632l19.559-1.1283c1.211 4.6426 0.082764 9.6785 2.0184 23.228 0.32086 13.55 4.2752 22.825 1.6511 22.421l-19.559-0.0828z"/>
     </g>
    </g>
    <path id="path2230" fill-opacity=".265" d="m721.95 269.44l0.5709 19.411s6.8511 0.57092 21.124-3.9964c14.273-4.5674 33.684-22.837 33.684-23.979 0-1.1418-15.415-10.276-15.415-10.276s1.1417 3.4255-6.2802 7.9929c-7.4219 4.5673-33.684 10.848-33.684 10.848z"/>
    <path id="path2232" fill-opacity=".681" d="m386.84 429.87c-7.422-6.8511-7.422-11.989-7.422-19.982 0-7.9929 0.57098-20.553 4.5674-22.837 3.9965-2.2837 2.8546-3.4255 6.8511 0.57095 3.9964 3.9964 5.7092 11.418 5.7092 15.986 0 4.5674-0.57092 12.56-2.8546 17.698-2.2837 5.1383-4.5674 8.5639-6.8511 8.5639z"/>
   </g>
   <g fill-opacity=".286">
    <path id="path2292" d="m-91.3 264.62l-25.837-45.215s20.992 32.296 33.911 37.141c12.918 4.8444 85.585 1.6148 85.585 1.6148l-93.659 6.4592z"/>
    <path id="path2294" d="m376.99 334.06s-58.133 43.6-171.17 109.81c-113.04 66.207-132.41 82.355-142.1 82.355-9.6889 0 0-8.074 0-8.074s229.3-132.41 313.27-184.09z"/>
    <path id="path2296" d="m368.07 141.04l33.911 98.503-61.363 3.2296s11.304 1.6148 41.985-8.074-14.533-93.659-14.533-93.659z"/>
    <path id="path2300" d="m271.66 419.39c47.136 11.956 107.86 13.316 111.48 11.956-3.1735-7.2537-7.4221-9.5506-6.714-22.383 1.6148-20.992 3.5405-19.602 5.3539-25.496-4.0802 3.1736-6.9688 10.03-10.198 19.719 0.85059 11.956 5.3539 15.582-9.1793 20.427-14.533 4.8444-90.744-4.2227-90.744-4.2227z"/>
   </g>
  </g>
 </g>
</svg>
