<?xml version="1.0" encoding="UTF-8" standalone="no"?>
<!DOCTYPE svg PUBLIC "-//W3C//DTD SVG 1.0//EN" "http://www.w3.org/TR/2001/REC-SVG-20010904/DTD/svg10.dtd">
<svg viewBox="0 0 437.5 437.5" xmlns="http://www.w3.org/2000/svg">
<defs>
<radialGradient cx=".38865" cy=".875" id="radialGradient579" r=".51681">
<stop offset="0" stop-color="#97d7dd"/>
<stop offset="1" stop-color="#7f95ff"/>
</radialGradient>
<radialGradient cx="9.09101367e-2" cy=".20313" id="radialGradient607" r=".51106">
<stop offset="0" stop-color="#d7ff77"/>
<stop offset="1" stop-color="#7de567"/>
</radialGradient>
<radialGradient cx="4.61541303e-2" cy=".76563" id="radialGradient608" r=".90809">
<stop offset="0" stop-color="#870f00"/>
<stop offset="1" stop-color="#ff7a8f"/>
</radialGradient>
</defs>
<path d="m206.379,420.0949c26.3286-15.3163 138.0556-76.8125 181.539-105.5006 4.0307-43.6073 35.3287-203.0058 29.6389-201.4101-26.0265,7.4862-176.2482,77.1043-198.2107,89.5156-2.0799,30.4474-6.9072,170.0764-12.9672,217.3951z" fill="url(#radialGradient607)" fill-rule="evenodd" stroke="#000" stroke-linejoin="bevel" stroke-width="15.29042"/>
<path d="m215.6413,204.2983c6.6794,2.8819-4.2766,27.6164-3.7049,3.197-11.0104-9.5009-137.24765-88.8278-169.33924-97.6216-9.83275,27.1763-.92891,161.8696-2.93751,203.1221 24.08962,4.7954 158.99195,105.4142 171.95895,107.0991 0-43.6922 5.2576-215.2637 4.0227-215.7966z" fill="url(#radialGradient608)" fill-rule="evenodd" stroke="#000" stroke-linejoin="bevel" stroke-width="15.29042"/>
<path d="m247.1328,22.07016c-14.2472-1.65358-172.28509,69.1433-203.76829,86.04434 25.64413,21.1558 149.55309,81.1241 175.98169,94.5854 4.2246,1.5623 167.9182-81.3354 196.3583-89.5157-16.4425-17.09608-149.6973-82.78541-168.5717-91.11404z" fill="url(#radialGradient579)" fill-rule="evenodd" stroke="#000" stroke-linejoin="bevel" stroke-width="15.29042"/>
<path d="m265.6571,125.9721c-7.3703-4.1793-33.1084-13.9282-40.7536-11.1894-8.1472,8.8076 9.3055,20.9299 11.1145,27.1744-1.9436,7.2332-8.8091,5.3453-16.6718,8.7916-8.0835-1.2252-39.9033-11.0142-50.0159-23.178-1.8524-9.3893-.5981-30.07229 9.2623-37.56468 23.7255-9.87704 60.7057-11.2246 75.0236-7.19316 14.5465,2.25025 29.3095,14.3731 28.7128,23.97744 16.424,2.9421 19.7195,4.1781 29.639,1.5985-.3666-11.07233-9.1067-10.65815-11.1147-20.78041-1.8466-10.83576-35.1679-21.48181-50.9419-21.57973-12.3067-1.6808-67.0256,1.10346-87.9908,10.39026-15.3621,8.72633-33.5278,35.38548-5.5575,65.53818 15.6411,8.9003 38.3275,21.5904 62.9831,23.9775 23.3932,2.7068 44.7358-14.8913 52.7943-19.9813 3.0556-8.7886 3.5279-14.7978-6.4834-19.9812z" fill-rule="evenodd" stroke="#000" stroke-width="1.22323"/>
<path d="m274.9193,328.1815c-5.1092,4.539-9.2266,7.9792-22.2294,10.3902-1.7458-14.9712 2.8718-107.0111 7.4098-126.2809 7.6925-.9916 13.5519-1.2838 16.672-.7994 .9987,6.3773 1.8525,49.3993 1.8525,57.5458 5.6504,2.438 58.8516-69.636 70.3926-79.1254 8.8022-3.5216 22.2338-5.0708 30.5652-8.7916-5.8089,9.4366-58.2328,73.272-62.9829,81.523 12.9672,5.2747 44.8295,18.9905 57.4255,26.3752-4.7105,4.1993-13.3104,9.8788-20.3768,13.5872-1.7723.93-38.5508-19.3618-54.6446-24.8448-4.0529,2.5095-16.1339,7.0398-22.2314,10.4583 0,9.0582.3434,23.1557-1.8525,39.9624z" fill-rule="evenodd" stroke="#000" stroke-width="1.22323"/>
<path d="m179.5187,227.4765c-23.0289-9.3806-87.76017-41.6144-95.40045-43.9586-2.21195,8.316-2.58267,15.8425-3.70505,30.3714 12.04071,6.3935 18.48503,10.5105 31.4915,15.9848-.6262,8.9162-3.7049,66.604-3.7049,79.9247 10.2147,4.6326 17.5982,11.5143 26.8604,13.5873-.9262-15.1517 2.9908-71.7244 8.3359-79.1255 11.4655,5.3445 18.2943,9.4784 33.344,12.788-1.1725-8.2697 1.0722-18.7371 2.7786-29.5721z" fill-rule="evenodd" stroke="#000" stroke-width="1.22323"/>
</svg>
